<svg xmlns="http://www.w3.org/2000/svg" width="375.941" height="325.995" viewBox="0 0 375.941 325.995">
  <g id="Logo_alt_b_w" data-name="Logo alt b\w" transform="translate(-345.082 -1337.823)">
    <path id="Контур_18" data-name="Контур 18" d="M649.923,1337.823v22.65a68.451,68.451,0,0,1,68.46,68.45h22.64A91.091,91.091,0,0,0,649.923,1337.823Z" transform="translate(-20)" fill="#1c1c1c"/>
    <path id="Контур_19" data-name="Контур 19" d="M591.454,1621.117a68.451,68.451,0,0,1-96.81.005l-16.009,16.008a91.091,91.091,0,0,0,128.835,0Z" transform="translate(-10)" fill="#1c1c1c"/>
    <path id="Контур_20" data-name="Контур 20" d="M436.179,1428.923a91.1,91.1,0,1,0,91.1,91.1A91.1,91.1,0,0,0,436.179,1428.923Zm0,159.547a68.45,68.45,0,1,1,68.45-68.45A68.45,68.45,0,0,1,436.179,1588.47Z" fill="#1c1c1c"/>
    <path id="Контур_21" data-name="Контур 21" d="M649.925,1428.923a91.1,91.1,0,1,0,91.1,91.1A91.1,91.1,0,0,0,649.925,1428.923Zm0,159.547a68.45,68.45,0,1,1,68.451-68.45A68.45,68.45,0,0,1,649.925,1588.47Z" transform="translate(-20)" fill="#1c1c1c"/>
    <path id="Контур_22" data-name="Контур 22" d="M436.182,1337.823v22.64a68.451,68.451,0,0,0-68.45,68.46h-22.65A91.091,91.091,0,0,1,436.182,1337.823Z" fill="#1c1c1c"/>
    <ellipse id="Эллипс_5" data-name="Эллипс 5" cx="22.937" cy="14.017" rx="22.937" ry="14.017" transform="translate(413.245 1471.57)" fill="#1c1c1c"/>
    <ellipse id="Эллипс_6" data-name="Эллипс 6" cx="22.937" cy="14.017" rx="22.937" ry="14.017" transform="translate(606.989 1471.57)" fill="#1c1c1c"/>
  </g>
</svg>
