<svg width="47" height="47" viewBox="0 0 47 47" fill="none"
	xmlns="http://www.w3.org/2000/svg">
	<path fill-rule="evenodd" clip-rule="evenodd" d="M9.06143 21.3093C5.81676 21.3093 3.18643 18.679 3.18643 15.4343C3.18643 12.1896 5.81676 9.55932 9.06143 9.55932C12.3061 9.55932 14.9364 12.1896 14.9364 15.4343C14.9364 18.679 12.3061 21.3093 9.06143 21.3093ZM32.5614 16.917C32.5614 14.4758 30.5947 12.4968 28.1527 12.4968H25.2201C22.7853 12.4968 20.8114 14.46 20.8114 16.917V31.5766C20.8114 34.0178 22.7781 35.9968 25.2201 35.9968H28.1527C30.5876 35.9968 32.5614 34.0336 32.5614 31.5766V31.5906C32.5614 30.7737 33.219 30.1218 34.0302 30.1218C34.847 30.1218 35.4989 30.7794 35.4989 31.5906V31.5975C35.4989 35.6501 32.2096 38.9343 28.152 38.9343H25.2209C21.1478 38.9343 17.8739 35.6495 17.8739 31.5975V16.8961C17.8739 12.8435 21.1633 9.55932 25.2209 9.55932H28.152C32.2251 9.55932 35.4989 12.8441 35.4989 16.8961V16.9031C35.4989 17.7199 34.8414 18.3718 34.0302 18.3718C33.2134 18.3718 32.5614 17.7142 32.5614 16.9031V16.917ZM9.06143 18.3718C10.6838 18.3718 11.9989 17.0567 11.9989 15.4343C11.9989 13.812 10.6838 12.4968 9.06143 12.4968C7.4391 12.4968 6.12393 13.812 6.12393 15.4343C6.12393 17.0567 7.4391 18.3718 9.06143 18.3718Z" fill="#00B4DB"/>
</svg>
