<svg width="82" height="40" viewBox="0 0 82 40" fill="none"
	xmlns="http://www.w3.org/2000/svg">
	<path d="M0 11.6422H3.15337V30.3032H15.1047V32.9516H0V11.6422Z" fill="#00B4DB"/>
	<path d="M74.0845 23.484L70.048 27.4417V32.9516H66.8952V11.6422H70.0485V23.5449L78.8923 14.7758L78.9009 11.6425H82V15.3304L76.1977 21.2316L82 28.0133V32.9519H78.9019V28.8804L74.0845 23.484Z" fill="#00B4DB"/>
	<path d="M52.2643 0.5V3.20971C53.3783 3.20957 54.4815 3.42126 55.5108 3.83273C56.5401 4.2442 57.4753 4.84738 58.2631 5.6078C59.051 6.36823 59.6759 7.27102 60.1023 8.26461C60.5286 9.25821 60.7481 10.3232 60.7481 11.3986H63.5538C63.5539 9.96736 63.262 8.55008 62.6947 7.22773C62.1274 5.90539 61.2958 4.70388 60.2475 3.69182C59.1991 2.67976 57.9545 1.87697 56.5847 1.32932C55.215 0.781659 53.7469 0.499859 52.2643 0.5Z" fill="#00B4DB"/>
	<path d="M46.2578 34.3915C45.4701 35.1521 44.535 35.7554 43.5058 36.1671C42.4765 36.5787 41.3734 36.7906 40.2594 36.7907C39.1453 36.7907 38.0422 36.5789 37.0129 36.1674C35.9836 35.7558 35.0484 35.1526 34.2607 34.3921L32.2768 36.3072C33.325 37.3194 34.5696 38.1223 35.9393 38.6701C37.309 39.2179 38.7771 39.4998 40.2597 39.4998C41.7423 39.4998 43.2103 39.2179 44.5801 38.6701C45.9498 38.1223 47.1943 37.3194 48.2426 36.3072L46.2578 34.3915Z" fill="#00B4DB"/>
	<path d="M28.2547 11.3987C26.0218 11.3987 23.8391 12.0378 21.9826 13.2354C20.1261 14.433 18.6791 16.1351 17.8246 18.1266C16.9701 20.118 16.7465 22.3094 17.1821 24.4235C17.6177 26.5376 18.693 28.4796 20.2718 30.0038C21.8507 31.528 23.8623 32.566 26.0522 32.9865C28.2422 33.407 30.5121 33.1912 32.575 32.3663C34.6379 31.5414 36.4011 30.1445 37.6416 28.3523C38.8821 26.56 39.5442 24.4528 39.5442 22.2973C39.5442 19.4068 38.3548 16.6347 36.2376 14.5908C34.1204 12.5469 31.2489 11.3987 28.2547 11.3987V11.3987ZM28.2547 30.4859C26.577 30.4859 24.937 30.0056 23.542 29.1058C22.1471 28.206 21.0598 26.927 20.4178 25.4307C19.7758 23.9344 19.6078 22.2878 19.9351 20.6993C20.2624 19.1108 21.0703 17.6517 22.2566 16.5065C23.4429 15.3612 24.9544 14.5813 26.5998 14.2653C28.2453 13.9494 29.9509 14.1115 31.5009 14.7313C33.0508 15.3511 34.3757 16.4007 35.3077 17.7474C36.2398 19.0941 36.7373 20.6773 36.7373 22.2969C36.7373 24.4688 35.8436 26.5517 34.2528 28.0874C32.662 29.6231 30.5044 30.4859 28.2547 30.4859V30.4859Z" fill="#00B4DB"/>
	<path d="M52.2645 11.3987C50.0317 11.3987 47.849 12.0378 45.9924 13.2354C44.1359 14.433 42.6889 16.1351 41.8344 18.1266C40.9799 20.118 40.7563 22.3094 41.1919 24.4235C41.6276 26.5376 42.7028 28.4796 44.2816 30.0038C45.8605 31.528 47.8721 32.566 50.062 32.9865C52.252 33.407 54.5219 33.1912 56.5848 32.3663C58.6477 31.5414 60.4109 30.1445 61.6514 28.3523C62.8919 26.56 63.554 24.4528 63.554 22.2973C63.554 19.4068 62.3646 16.6347 60.2474 14.5908C58.1302 12.5469 55.2587 11.3987 52.2645 11.3987V11.3987ZM52.2645 30.4859C50.5868 30.4858 48.9468 30.0055 47.5519 29.1057C46.1569 28.2059 45.0697 26.927 44.4277 25.4306C43.7857 23.9343 43.6177 22.2878 43.945 20.6993C44.2724 19.1108 45.0803 17.6517 46.2666 16.5064C47.4529 15.3612 48.9644 14.5813 50.6098 14.2653C52.2553 13.9494 53.9608 14.1115 55.5108 14.7314C57.0608 15.3512 58.3856 16.4008 59.3177 17.7474C60.2498 19.0941 60.7473 20.6773 60.7473 22.2969C60.7473 23.3723 60.5278 24.4372 60.1015 25.4307C59.6752 26.4243 59.0504 27.327 58.2627 28.0874C57.475 28.8478 56.5399 29.451 55.5107 29.8626C54.4815 30.2741 53.3785 30.4859 52.2645 30.4859V30.4859Z" fill="#00B4DB"/>
	<path d="M28.2551 0.5V3.20851C27.141 3.20853 26.0379 3.42039 25.0087 3.832C23.9794 4.24361 23.0443 4.84691 22.2566 5.60745C21.4689 6.36799 20.8441 7.27087 20.4178 8.26453C19.9916 9.25818 19.7723 10.3232 19.7725 11.3986H16.9656C16.9654 9.96736 17.2573 8.55008 17.8246 7.22773C18.3919 5.90539 19.2235 4.70388 20.2719 3.69182C21.3202 2.67976 22.5648 1.87697 23.9346 1.32932C25.3044 0.781659 26.7725 0.499859 28.2551 0.5Z" fill="#00B4DB"/>
	<path d="M28.2551 19.8545C29.8249 19.8545 31.0975 19.1037 31.0975 18.1776C31.0975 17.2514 29.8249 16.5007 28.2551 16.5007C26.6852 16.5007 25.4126 17.2514 25.4126 18.1776C25.4126 19.1037 26.6852 19.8545 28.2551 19.8545Z" fill="#00B4DB"/>
	<path d="M52.2647 19.8545C53.8345 19.8545 55.1071 19.1037 55.1071 18.1776C55.1071 17.2514 53.8345 16.5007 52.2647 16.5007C50.6948 16.5007 49.4222 17.2514 49.4222 18.1776C49.4222 19.1037 50.6948 19.8545 52.2647 19.8545Z" fill="#00B4DB"/>
</svg>
