<svg width="14" height="14" viewBox="0 0 14 14" fill="none"
	xmlns="http://www.w3.org/2000/svg">
	<path fill-rule="evenodd" clip-rule="evenodd" d="M8.53485 9.72235C7.70962 10.3104 6.69989 10.6562 5.60938 10.6562C2.82206 10.6562 0.5625 8.39669 0.5625 5.60938C0.5625 2.82206 2.82206 0.5625 5.60938 0.5625C8.39669 0.5625 10.6562 2.82206 10.6562 5.60938C10.6562 6.69989 10.3104 7.70962 9.72235 8.53485L13.0383 11.8508C13.365 12.1775 13.3623 12.7002 13.0382 13.0243L13.0243 13.0382C12.701 13.3615 12.1748 13.3623 11.8508 13.0383L8.53485 9.72235ZM5.60938 9.46875C7.74085 9.46875 9.46875 7.74085 9.46875 5.60938C9.46875 3.4779 7.74085 1.75 5.60938 1.75C3.4779 1.75 1.75 3.4779 1.75 5.60938C1.75 7.74085 3.4779 9.46875 5.60938 9.46875Z" fill="#CBCACA"/>
</svg>
